<svg width="63" height="56" viewBox="0 0 63 56" fill="none" xmlns="http://www.w3.org/2000/svg">
<path d="M31.1799 4.77694C27.5521 1.52383 22.7975 -0.184481 17.9288 0.0158184C13.0602 0.216118 8.46201 2.3092 5.11362 5.84932C1.76523 9.38945 -0.0688479 14.0969 0.00197752 18.9692C0.0728029 23.8415 2.04293 28.4936 5.49281 31.9349L26.7736 53.2126C27.9423 54.381 29.5273 55.0374 31.1799 55.0374C32.8326 55.0374 34.4175 54.381 35.5863 53.2126L56.8671 31.9349C60.3169 28.4936 62.2871 23.8415 62.3579 18.9692C62.4287 14.0969 60.5946 9.38945 57.2462 5.84932C53.8979 2.3092 49.2997 0.216118 44.431 0.0158184C39.5623 -0.184481 34.8078 1.52383 31.1799 4.77694ZM27.5277 9.90003L28.9768 11.346C29.5611 11.9302 30.3536 12.2584 31.1799 12.2584C32.0062 12.2584 32.7987 11.9302 33.3831 11.346L34.8322 9.90003C35.982 8.70951 37.3575 7.7599 38.8782 7.10662C40.399 6.45335 42.0346 6.10949 43.6897 6.09511C45.3448 6.08072 46.9862 6.39611 48.5181 7.02286C50.05 7.64961 51.4417 8.57516 52.6121 9.74553C53.7825 10.9159 54.708 12.3076 55.3348 13.8395C55.9615 15.3714 56.2769 17.0128 56.2625 18.6679C56.2481 20.323 55.9043 21.9586 55.251 23.4794C54.5977 25.0002 53.6481 26.3756 52.4576 27.5255L31.1799 48.8062L20.5411 38.1658L9.90228 27.5255C7.63169 25.1745 6.3753 22.0259 6.4037 18.7576C6.4321 15.4893 7.74302 12.363 10.0541 10.0519C12.3652 7.74077 15.4916 6.42985 18.7599 6.40145C22.0281 6.37305 25.1768 7.62944 27.5277 9.90003Z" fill="#FF0000"/>
<path d="M27.5277 9.90003L28.9768 11.346C29.5611 11.9302 30.3536 12.2584 31.1799 12.2584C32.0062 12.2584 32.7987 11.9302 33.3831 11.346L34.8322 9.90003C35.982 8.70951 37.3575 7.7599 38.8782 7.10662C40.399 6.45335 42.0346 6.10949 43.6897 6.09511C45.3448 6.08072 46.9862 6.39611 48.5181 7.02286C50.05 7.64961 51.4417 8.57516 52.6121 9.74553C53.7825 10.9159 54.708 12.3076 55.3348 13.8395C55.9615 15.3714 56.2769 17.0128 56.2625 18.6679C56.2481 20.323 55.9043 21.9586 55.251 23.4794C54.5977 25.0002 53.6481 26.3756 52.4576 27.5255L31.1799 48.8062L20.5411 38.1658L9.90228 27.5255C7.63169 25.1745 6.3753 22.0259 6.4037 18.7576C6.4321 15.4893 7.74302 12.363 10.0541 10.0519C12.3652 7.74077 15.4916 6.42985 18.7599 6.40145C22.0281 6.37305 25.1768 7.62944 27.5277 9.90003Z" fill="#FF0000"/>
</svg>
