<svg width="13" height="12" viewBox="0 0 13 12" fill="none" xmlns="http://www.w3.org/2000/svg">
<path d="M0.450317 2.10843C0.450317 1.78478 0.578887 1.47439 0.807743 1.24553C1.0366 1.01668 1.34699 0.888107 1.67064 0.888107H11.4333C11.7569 0.888107 12.0673 1.01668 12.2962 1.24553C12.525 1.47439 12.6536 1.78478 12.6536 2.10843V8.82023C12.6536 9.14388 12.525 9.45427 12.2962 9.68313C12.0673 9.91198 11.7569 10.0406 11.4333 10.0406H8.63504L6.98333 11.6923C6.86891 11.8067 6.71374 11.8709 6.55195 11.8709C6.39015 11.8709 6.23499 11.8067 6.12056 11.6923L4.46885 10.0406H1.67064C1.34699 10.0406 1.0366 9.91198 0.807743 9.68313C0.578887 9.45427 0.450317 9.14388 0.450317 8.82023V2.10843ZM11.4333 2.10843H1.67064V8.82023H4.72146C4.88327 8.82026 5.03844 8.88457 5.15284 8.99901L6.55195 10.3981L7.95105 8.99901C8.06545 8.88457 8.22063 8.82026 8.38244 8.82023H11.4333V2.10843ZM2.89097 4.244C2.89097 4.08218 2.95525 3.92698 3.06968 3.81255C3.18411 3.69813 3.33931 3.63384 3.50113 3.63384H9.60276C9.76459 3.63384 9.91979 3.69813 10.0342 3.81255C10.1486 3.92698 10.2129 4.08218 10.2129 4.244C10.2129 4.40583 10.1486 4.56103 10.0342 4.67546C9.91979 4.78988 9.76459 4.85417 9.60276 4.85417H3.50113C3.33931 4.85417 3.18411 4.78988 3.06968 4.67546C2.95525 4.56103 2.89097 4.40583 2.89097 4.244ZM2.89097 6.68466C2.89097 6.52283 2.95525 6.36763 3.06968 6.25321C3.18411 6.13878 3.33931 6.07449 3.50113 6.07449H7.16211C7.32394 6.07449 7.47913 6.13878 7.59356 6.25321C7.70799 6.36763 7.77227 6.52283 7.77227 6.68466C7.77227 6.84648 7.70799 7.00168 7.59356 7.11611C7.47913 7.23054 7.32394 7.29482 7.16211 7.29482H3.50113C3.33931 7.29482 3.18411 7.23054 3.06968 7.11611C2.95525 7.00168 2.89097 6.84648 2.89097 6.68466Z" fill="#0D0D0D"/>
</svg>
