<svg width="14" height="12" viewBox="0 0 14 12" fill="none" xmlns="http://www.w3.org/2000/svg">
<path d="M6.72515 1.03033C5.94266 0.328671 4.91716 -0.0397905 3.86704 0.00341184C2.81692 0.0466142 1.82516 0.498067 1.10295 1.26163C0.380739 2.02519 -0.0148497 3.04054 0.000426527 4.09143C0.0157027 5.14233 0.440636 6.14574 1.18473 6.88799L5.77475 11.4773C6.02683 11.7293 6.36869 11.8709 6.72515 11.8709C7.0816 11.8709 7.42346 11.7293 7.67555 11.4773L12.2656 6.88799C13.0097 6.14574 13.4346 5.14233 13.4499 4.09143C13.4651 3.04054 13.0696 2.02519 12.3473 1.26163C11.6251 0.498067 10.6334 0.0466142 9.58325 0.00341184C8.53313 -0.0397905 7.50764 0.328671 6.72515 1.03033ZM5.9374 2.13532L6.24995 2.44719C6.37599 2.5732 6.54692 2.64398 6.72515 2.64398C6.90337 2.64398 7.0743 2.5732 7.20035 2.44719L7.51289 2.13532C7.7609 1.87854 8.05756 1.67372 8.38558 1.53282C8.71359 1.39191 9.06638 1.31775 9.42336 1.31464C9.78035 1.31154 10.1344 1.37957 10.4648 1.51475C10.7952 1.64993 11.0954 1.84956 11.3478 2.102C11.6002 2.35443 11.7999 2.65461 11.9351 2.98502C12.0702 3.31544 12.1383 3.66946 12.1352 4.02644C12.1321 4.38343 12.0579 4.73622 11.917 5.06423C11.7761 5.39224 11.5713 5.68891 11.3145 5.93692L6.72515 10.5269L2.13581 5.93692C1.64607 5.42985 1.37508 4.75072 1.3812 4.0458C1.38733 3.34087 1.67008 2.66655 2.16856 2.16807C2.66703 1.66959 3.34135 1.38684 4.04628 1.38072C4.75121 1.37459 5.43034 1.64558 5.9374 2.13532Z" fill="#0D0D0D"/>
</svg>
